<svg version="1.1" id="Layer_1" xmlns="http://www.w3.org/2000/svg" xmlns:xlink="http://www.w3.org/1999/xlink" x="0px" y="0px" viewBox="0 0 576 512" style="enable-background:new 0 0 576 512;" xml:space="preserve"><style type="text/css"> .st0{fill:#455A64;} </style><path class="st0" d="M560,32c-2,0-4,0.4-6,1.2L384,96h0L212,35.3c-6.5-2.2-13.4-3.3-20.2-3.3c-6.7,0-13.4,1-19.8,3.1L20.1,87.9 C8,92.8,0,104.6,0,117.7V464c0,9.2,7.5,16,16,16c2,0,4-0.4,6-1.2L192,416l172,60.7c13,4.3,27,4.4,40,0.1L555.9,424 c12.2-4.9,20.1-16.6,20.1-29.7V48C576,38.8,568.5,32,560,32z M224,90.4l128,45.2v286l-128-45.2V90.4z M48,418v-289l128-44.5v286.2 l-0.6,0.2L48,418z M528,382.9l-128,44.5V141.3l0.6-0.2L528,93.9V382.9z"/></svg>